<svg width="40" height="41" viewBox="0 0 40 41" fill="none" xmlns="http://www.w3.org/2000/svg">
<g filter="url(#filter0_d_17_2840)">
<circle cx="20" cy="18.0352" r="16" fill="#FCFCFC"/>
</g>
<g clip-path="url(#clip0_17_2840)">
<path d="M24.3751 7.04617C24.3284 6.99392 22.644 7.06679 21.1783 8.65767C19.7125 10.2472 19.938 12.0704 19.971 12.1172C20.004 12.1639 22.061 12.2368 23.3741 10.3874C24.6873 8.53804 24.4219 7.09979 24.3751 7.04617ZM28.9319 23.179C28.8659 23.047 25.735 21.4823 26.0265 18.4738C26.318 15.4653 28.3296 14.6389 28.3613 14.5495C28.3929 14.4602 27.5404 13.4633 26.637 12.9587C25.9736 12.6032 25.2396 12.3994 24.4879 12.3619C24.3394 12.3578 23.8238 12.2313 22.7636 12.5214C22.0651 12.7125 20.4908 13.3313 20.0576 13.356C19.6231 13.3808 18.3306 12.6383 16.9405 12.4417C16.0509 12.2698 15.1076 12.6218 14.4325 12.8927C13.7588 13.1622 12.4773 13.9294 11.5808 15.9685C10.6843 18.0063 11.1531 21.2348 11.4886 22.2385C11.8241 23.2423 12.348 24.884 13.239 26.083C14.031 27.436 15.0815 28.3752 15.5201 28.6942C15.9588 29.0132 17.1963 29.2249 18.0543 28.7863C18.7445 28.3628 19.9903 28.1194 20.4825 28.1373C20.9734 28.1552 21.9414 28.349 22.9328 28.8784C23.7179 29.1493 24.4604 29.0365 25.2043 28.734C25.9481 28.4302 27.0248 27.2779 28.2815 24.9418C28.7582 23.8555 28.975 23.268 28.9319 23.179Z" fill="black"/>
<path d="M24.3751 7.04617C24.3284 6.99392 22.644 7.06679 21.1783 8.65767C19.7125 10.2472 19.938 12.0704 19.971 12.1172C20.004 12.1639 22.061 12.2368 23.3741 10.3874C24.6873 8.53804 24.4219 7.09979 24.3751 7.04617ZM28.9319 23.179C28.8659 23.047 25.735 21.4823 26.0265 18.4738C26.318 15.4653 28.3296 14.6389 28.3613 14.5495C28.3929 14.4602 27.5404 13.4633 26.637 12.9587C25.9736 12.6032 25.2396 12.3994 24.4879 12.3619C24.3394 12.3578 23.8238 12.2313 22.7636 12.5214C22.0651 12.7125 20.4908 13.3313 20.0576 13.356C19.6231 13.3808 18.3306 12.6383 16.9405 12.4417C16.0509 12.2698 15.1076 12.6218 14.4325 12.8927C13.7588 13.1622 12.4773 13.9294 11.5808 15.9685C10.6843 18.0063 11.1531 21.2348 11.4886 22.2385C11.8241 23.2423 12.348 24.884 13.239 26.083C14.031 27.436 15.0815 28.3752 15.5201 28.6942C15.9588 29.0132 17.1963 29.2249 18.0543 28.7863C18.7445 28.3628 19.9903 28.1194 20.4825 28.1373C20.9734 28.1552 21.9414 28.349 22.9328 28.8784C23.7179 29.1493 24.4604 29.0365 25.2043 28.734C25.9481 28.4302 27.0248 27.2779 28.2815 24.9418C28.7582 23.8555 28.975 23.268 28.9319 23.179Z" fill="black"/>
</g>
<defs>
<filter id="filter0_d_17_2840" x="0" y="0.0351562" width="40" height="40" filterUnits="userSpaceOnUse" color-interpolation-filters="sRGB">
<feFlood flood-opacity="0" result="BackgroundImageFix"/>
<feColorMatrix in="SourceAlpha" type="matrix" values="0 0 0 0 0 0 0 0 0 0 0 0 0 0 0 0 0 0 127 0" result="hardAlpha"/>
<feOffset dy="2"/>
<feGaussianBlur stdDeviation="2"/>
<feComposite in2="hardAlpha" operator="out"/>
<feColorMatrix type="matrix" values="0 0 0 0 0 0 0 0 0 0 0 0 0 0 0 0 0 0 0.05 0"/>
<feBlend mode="normal" in2="BackgroundImageFix" result="effect1_dropShadow_17_2840"/>
<feBlend mode="normal" in="SourceGraphic" in2="effect1_dropShadow_17_2840" result="shape"/>
</filter>
<clipPath id="clip0_17_2840">
<rect width="22" height="22" fill="white" transform="translate(9 7.03516)"/>
</clipPath>
</defs>
</svg>
