<svg width="40" height="41" viewBox="0 0 40 41" fill="none" xmlns="http://www.w3.org/2000/svg">
<g filter="url(#filter0_d_17_2829)">
<circle cx="20" cy="18.0352" r="16" fill="#FCFCFC"/>
</g>
<path d="M31.4399 15.7503H30.5002V15.7019H20.0002V20.3685H26.5936C25.6317 23.0851 23.0469 25.0352 20.0002 25.0352C16.1344 25.0352 13.0002 21.9009 13.0002 18.0352C13.0002 14.1694 16.1344 11.0352 20.0002 11.0352C21.7846 11.0352 23.408 11.7084 24.6441 12.8079L27.944 9.50803C25.8603 7.56611 23.0732 6.36853 20.0002 6.36853C13.5572 6.36853 8.3335 11.5923 8.3335 18.0352C8.3335 24.4781 13.5572 29.7019 20.0002 29.7019C26.4431 29.7019 31.6668 24.4781 31.6668 18.0352C31.6668 17.2529 31.5863 16.4894 31.4399 15.7503Z" fill="#FFC107"/>
<path d="M9.67871 12.6049L13.5118 15.416C14.549 12.8482 17.0608 11.0352 20.0002 11.0352C21.7846 11.0352 23.408 11.7084 24.6441 12.8079L27.944 9.50803C25.8604 7.56611 23.0732 6.36853 20.0002 6.36853C15.519 6.36853 11.6329 8.89845 9.67871 12.6049Z" fill="#FF3D00"/>
<path d="M20 29.7019C23.0135 29.7019 25.7517 28.5486 27.8219 26.6732L24.2111 23.6177C23.0004 24.5384 21.521 25.0364 20 25.0352C16.9655 25.0352 14.3889 23.1003 13.4183 20.4L9.61377 23.3313C11.5446 27.1095 15.4658 29.7019 20 29.7019Z" fill="#4CAF50"/>
<path d="M31.4397 15.7502H30.5V15.7018H20V20.3684H26.5934C26.1333 21.6614 25.3045 22.7911 24.2093 23.6182L24.2111 23.617L27.8219 26.6725C27.5664 26.9047 31.6667 23.8684 31.6667 18.0351C31.6667 17.2529 31.5862 16.4893 31.4397 15.7502Z" fill="#1976D2"/>
<defs>
<filter id="filter0_d_17_2829" x="0" y="0.0351562" width="40" height="40" filterUnits="userSpaceOnUse" color-interpolation-filters="sRGB">
<feFlood flood-opacity="0" result="BackgroundImageFix"/>
<feColorMatrix in="SourceAlpha" type="matrix" values="0 0 0 0 0 0 0 0 0 0 0 0 0 0 0 0 0 0 127 0" result="hardAlpha"/>
<feOffset dy="2"/>
<feGaussianBlur stdDeviation="2"/>
<feComposite in2="hardAlpha" operator="out"/>
<feColorMatrix type="matrix" values="0 0 0 0 0 0 0 0 0 0 0 0 0 0 0 0 0 0 0.05 0"/>
<feBlend mode="normal" in2="BackgroundImageFix" result="effect1_dropShadow_17_2829"/>
<feBlend mode="normal" in="SourceGraphic" in2="effect1_dropShadow_17_2829" result="shape"/>
</filter>
</defs>
</svg>
