<svg width="32" height="33" viewBox="0 0 32 33" fill="none" xmlns="http://www.w3.org/2000/svg">
<g clip-path="url(#clip0_17_2805)">
<path d="M32 16.0352C32 7.19866 24.8365 0.0351562 16 0.0351562C7.1635 0.0351562 0 7.19866 0 16.0352C0 24.0212 5.851 30.6405 13.5 31.8408V20.6602H9.4375V16.0352H13.5V12.5102C13.5 8.50016 15.8888 6.28516 19.5435 6.28516C21.294 6.28516 23.125 6.59766 23.125 6.59766V10.5352H21.1075C19.1199 10.5352 18.5 11.7685 18.5 13.0339V16.0352H22.9375L22.2281 20.6602H18.5V31.8408C26.149 30.6405 32 24.0213 32 16.0352Z" fill="#1877F2"/>
<path d="M22.2281 20.6602L22.9375 16.0352H18.5V13.0339C18.5 11.7684 19.1199 10.5352 21.1075 10.5352H23.125V6.59766C23.125 6.59766 21.294 6.28516 19.5434 6.28516C15.8888 6.28516 13.5 8.50016 13.5 12.5102V16.0352H9.4375V20.6602H13.5V31.8408C14.327 31.9704 15.1629 32.0354 16 32.0352C16.8371 32.0354 17.673 31.9704 18.5 31.8408V20.6602H22.2281Z" fill="white"/>
</g>
<defs>
<clipPath id="clip0_17_2805">
<rect width="32" height="32" fill="white" transform="translate(0 0.0351562)"/>
</clipPath>
</defs>
</svg>
