<svg width="32" height="33" viewBox="0 0 32 33" fill="none" xmlns="http://www.w3.org/2000/svg">
<g clip-path="url(#clip0_17_2800)">
<path d="M24.5 0.0351562H7.5C3.35786 0.0351562 0 3.39302 0 7.53516V24.5352C0 28.6773 3.35786 32.0352 7.5 32.0352H24.5C28.6421 32.0352 32 28.6773 32 24.5352V7.53516C32 3.39302 28.6421 0.0351562 24.5 0.0351562Z" fill="white"/>
<path d="M24.5 0.0351562H7.5C3.35786 0.0351562 0 3.39302 0 7.53516V24.5352C0 28.6773 3.35786 32.0352 7.5 32.0352H24.5C28.6421 32.0352 32 28.6773 32 24.5352V7.53516C32 3.39302 28.6421 0.0351562 24.5 0.0351562Z" fill="#1D9BF0"/>
<path d="M24.9465 11.4615C24.9603 11.6599 24.9603 11.8583 24.9603 12.0585C24.9603 18.1581 20.3168 25.1929 11.8259 25.1929V25.1891C9.31752 25.1928 6.86113 24.4744 4.75 23.1198C5.11475 23.1637 5.48125 23.1855 5.84875 23.1864C7.92775 23.1881 9.94694 22.4908 11.5819 21.2065C10.6186 21.1883 9.68509 20.8696 8.91185 20.2948C8.13862 19.7201 7.56432 18.9181 7.26925 18.0009C7.96085 18.1342 8.67382 18.107 9.35325 17.9214C7.19975 17.4863 5.65037 15.5942 5.65037 13.3967V13.3382C6.29236 13.6957 7.01085 13.8939 7.74538 13.9159C5.71713 12.5603 5.09188 9.8619 6.31663 7.75215C7.47554 9.17827 8.92149 10.3447 10.5606 11.1755C12.1996 12.0064 13.9952 12.4832 15.8305 12.5749C15.6475 11.7872 15.6745 10.9653 15.9089 10.1913C16.1432 9.41731 16.5767 8.71842 17.1659 8.16453C19.0251 6.41678 21.9493 6.5064 23.697 8.36465C24.7308 8.16055 25.7221 7.78157 26.6284 7.24403C26.2838 8.31286 25.5626 9.22011 24.5991 9.79703C25.5142 9.68921 26.4078 9.44426 27.25 9.0704C26.6305 9.99815 25.8505 10.8078 24.9465 11.4615Z" fill="white"/>
</g>
<defs>
<clipPath id="clip0_17_2800">
<rect width="32" height="32" fill="white" transform="translate(0 0.0351562)"/>
</clipPath>
</defs>
</svg>
